<svg width="700" height="700" viewBox="0 0 700 700" fill="none" xmlns="http://www.w3.org/2000/svg">
<mask id="path-1-inside-1_97_1211" fill="white">
<path fill-rule="evenodd" clip-rule="evenodd" d="M700 0H0L32 0.000714222L0 79.208V700H700V0Z"/>
</mask>
<path d="M0 0V-1L-2.23194e-05 1L0 0ZM700 0H701V-1H700V0ZM32 0.000714222L32.9272 0.375302L33.4825 -0.999253L32 -0.999286L32 0.000714222ZM0 79.208L-0.927191 78.8334L-1 79.0137V79.208H0ZM0 700H-1V701H0V700ZM700 700V701H701V700H700ZM0 1H700V-1H0V1ZM-2.23194e-05 1L32 1.00071L32 -0.999286L2.23194e-05 -1L-2.23194e-05 1ZM31.0728 -0.373874L-0.927191 78.8334L0.927191 79.5826L32.9272 0.375302L31.0728 -0.373874ZM1 700V79.208H-1V700H1ZM700 699H0V701H700V699ZM699 0V700H701V0H699Z" fill="url(#paint0_linear_97_1211)" mask="url(#path-1-inside-1_97_1211)"/>
<defs>
<linearGradient id="paint0_linear_97_1211" x1="0" y1="0" x2="700" y2="700" gradientUnits="userSpaceOnUse">
<stop stop-color="#01CCFF"/>
<stop offset="1" stop-color="#B8F1FF"/>
</linearGradient>
</defs>
</svg>
