<svg width="700" height="700" viewBox="0 0 700 700" fill="none" xmlns="http://www.w3.org/2000/svg">
<mask id="path-1-inside-1_97_1220" fill="white">
<path fill-rule="evenodd" clip-rule="evenodd" d="M700 0H0V700H700L668 699.999L700 620.792V0Z"/>
</mask>
<path d="M0 0V-1H-1V0H0ZM700 0H701V-1H700V0ZM0 700H-1V701H0V700ZM700 700V701V699V700ZM668 699.999L667.073 699.625L666.517 700.999L668 700.999V699.999ZM700 620.792L700.927 621.167L701 620.986V620.792H700ZM0 1H700V-1H0V1ZM1 700V0H-1V700H1ZM700 699H0V701H700V699ZM700 699L668 698.999V700.999L700 701V699ZM668.927 700.374L700.927 621.167L699.073 620.417L667.073 699.625L668.927 700.374ZM699 0V620.792H701V0H699Z" fill="url(#paint0_linear_97_1220)" mask="url(#path-1-inside-1_97_1220)"/>
<defs>
<linearGradient id="paint0_linear_97_1220" x1="0" y1="0" x2="700" y2="700" gradientUnits="userSpaceOnUse">
<stop stop-color="#01CCFF"/>
<stop offset="1" stop-color="#B8F1FF"/>
</linearGradient>
</defs>
</svg>
