<svg width="40" height="40" viewBox="0 0 40 40" fill="none" xmlns="http://www.w3.org/2000/svg">
<path d="M12.4272 31.5L9.58514 13.5H30.4149L27.5728 31.5H12.4272Z" stroke="black"/>
<mask id="path-2-inside-1_47_189" fill="white">
<path d="M16 11C16 8.79086 17.7909 7 20 7C22.2091 7 24 8.79086 24 11V12H16V11Z"/>
</mask>
<path d="M15 11C15 8.23858 17.2386 6 20 6C22.7614 6 25 8.23858 25 11H23C23 9.34315 21.6569 8 20 8C18.3431 8 17 9.34315 17 11H15ZM24 12H16H24ZM15 12V11C15 8.23858 17.2386 6 20 6V8C18.3431 8 17 9.34315 17 11V12H15ZM20 6C22.7614 6 25 8.23858 25 11V12H23V11C23 9.34315 21.6569 8 20 8V6Z" fill="black" mask="url(#path-2-inside-1_47_189)"/>
</svg>
