<svg width="60" height="60" viewBox="0 0 60 60" fill="none" xmlns="http://www.w3.org/2000/svg">
<path fill-rule="evenodd" clip-rule="evenodd" d="M45 30C45 38.2842 38.2842 45 30 45C21.7158 45 15 38.2842 15 30C15 21.7158 21.7158 15 30 15C38.2842 15 45 21.7158 45 30ZM33.4376 33.1254C32.576 33.1254 31.875 32.4244 31.875 31.5628C31.875 30.7013 32.576 30 33.4376 30C34.2991 30 34.9999 30.7013 34.9999 31.5628C34.9999 32.4244 34.2991 33.1254 33.4376 33.1254ZM33.7128 35.6914C32.6464 36.7564 30.6029 36.8391 30.0022 36.8391C29.401 36.8391 27.3575 36.7564 26.2923 35.6911C26.1343 35.5332 26.1343 35.2768 26.2925 35.1186C26.4505 34.9606 26.7069 34.9604 26.8651 35.1186C27.5373 35.7908 28.9752 36.0293 30.0022 36.0293C31.0292 36.0293 32.4674 35.7908 33.1407 35.1183C33.2992 34.9604 33.5553 34.9606 33.7133 35.1188C33.8713 35.277 33.8713 35.5334 33.7128 35.6914ZM25 31.5626C25 30.701 25.7013 30 26.563 30C27.4241 30 28.1249 30.701 28.1249 31.5626C28.1249 32.4239 27.4241 33.1249 26.563 33.1249C25.7013 33.1249 25 32.4239 25 31.5626ZM39.9979 30.0001C39.9979 28.7919 39.0187 27.8127 37.8105 27.8127C37.2208 27.8127 36.6866 28.047 36.2934 28.4265C34.798 27.3474 32.7379 26.6506 30.4434 26.5705L31.4397 21.8823L34.6954 22.5744C34.735 23.402 35.4128 24.0627 36.2505 24.0627C37.1134 24.0627 37.8128 23.363 37.8128 22.5001C37.8128 21.6371 37.1134 20.9375 36.2505 20.9375C35.6366 20.9375 35.1109 21.2947 34.8552 21.8096L31.2201 21.0369C31.1188 21.0148 31.0129 21.0348 30.9262 21.0915C30.8392 21.1477 30.7783 21.2366 30.7567 21.3378L29.6439 26.5691C27.3156 26.6335 25.2224 27.3315 23.7081 28.4225C23.3151 28.0454 22.7828 27.8127 22.1952 27.8127C20.987 27.8127 20.0078 28.7919 20.0078 30.0001C20.0078 30.8891 20.5389 31.6524 21.3002 31.9946C21.2664 32.2121 21.2479 32.4327 21.2479 32.6562C21.2479 36.0219 25.1655 38.75 29.998 38.75C34.8304 38.75 38.748 36.0219 38.748 32.6562C38.748 32.4341 38.7299 32.2149 38.6966 31.9991C39.4628 31.6588 39.9979 30.8926 39.9979 30.0001Z" fill="#0A0A0A"/>
</svg>
