<svg width="60" height="60" viewBox="0 0 60 60" fill="none" xmlns="http://www.w3.org/2000/svg">
<path fill-rule="evenodd" clip-rule="evenodd" d="M22.8108 30C22.8108 26.0295 26.0295 22.8108 30 22.8108C33.9705 22.8108 37.1892 26.0295 37.1892 30C37.1892 33.9705 33.9705 37.1892 30 37.1892C26.0295 37.1892 22.8108 33.9705 22.8108 30ZM30 34.6667C27.4227 34.6667 25.3333 32.5773 25.3333 30C25.3333 27.4227 27.4227 25.3333 30 25.3333C32.5773 25.3333 34.6667 27.4227 34.6667 30C34.6667 32.5773 32.5773 34.6667 30 34.6667Z" fill="#0A0A0A"/>
<path d="M37.4732 24.2068C38.4011 24.2068 39.1532 23.4546 39.1532 22.5268C39.1532 21.5989 38.4011 20.8468 37.4732 20.8468C36.5454 20.8468 35.7932 21.5989 35.7932 22.5268C35.7932 23.4546 36.5454 24.2068 37.4732 24.2068Z" fill="#0A0A0A"/>
<path fill-rule="evenodd" clip-rule="evenodd" d="M30 16C26.1978 16 25.7211 16.0161 24.2278 16.0842C22.7377 16.1522 21.72 16.3889 20.8295 16.735C19.9088 17.0927 19.1281 17.5714 18.3497 18.3497C17.5714 19.1281 17.0927 19.9088 16.735 20.8295C16.3889 21.72 16.1522 22.7377 16.0842 24.2278C16.0161 25.7211 16 26.1978 16 30C16 33.8022 16.0161 34.2789 16.0842 35.7722C16.1522 37.2623 16.3889 38.28 16.735 39.1705C17.0927 40.0912 17.5714 40.8719 18.3497 41.6503C19.1281 42.4286 19.9088 42.9073 20.8295 43.265C21.72 43.6111 22.7377 43.8478 24.2278 43.9158C25.7211 43.9839 26.1978 44 30 44C33.8022 44 34.2789 43.9839 35.7722 43.9158C37.2623 43.8478 38.28 43.6111 39.1705 43.265C40.0912 42.9073 40.8719 42.4286 41.6503 41.6503C42.4286 40.8719 42.9073 40.0912 43.265 39.1705C43.6111 38.28 43.8478 37.2623 43.9158 35.7722C43.9839 34.2789 44 33.8022 44 30C44 26.1978 43.9839 25.7211 43.9158 24.2278C43.8478 22.7377 43.6111 21.72 43.265 20.8295C42.9073 19.9088 42.4286 19.1281 41.6503 18.3497C40.8719 17.5714 40.0912 17.0927 39.1705 16.735C38.28 16.3889 37.2623 16.1522 35.7722 16.0842C34.2789 16.0161 33.8022 16 30 16ZM30 18.5225C33.7382 18.5225 34.181 18.5368 35.6572 18.6042C37.0222 18.6664 37.7635 18.8945 38.2568 19.0862C38.9103 19.3402 39.3767 19.6435 39.8665 20.1335C40.3565 20.6233 40.6598 21.0897 40.9138 21.7432C41.1055 22.2365 41.3336 22.9778 41.3958 24.3428C41.4632 25.819 41.4775 26.2618 41.4775 30C41.4775 33.7382 41.4632 34.181 41.3958 35.6572C41.3336 37.0222 41.1055 37.7635 40.9138 38.2568C40.6598 38.9103 40.3565 39.3767 39.8665 39.8665C39.3767 40.3565 38.9103 40.6598 38.2568 40.9138C37.7635 41.1055 37.0222 41.3336 35.6572 41.3958C34.1812 41.4632 33.7384 41.4775 30 41.4775C26.2616 41.4775 25.8189 41.4632 24.3428 41.3958C22.9778 41.3336 22.2365 41.1055 21.7432 40.9138C21.0897 40.6598 20.6234 40.3565 20.1335 39.8665C19.6436 39.3767 19.3402 38.9103 19.0862 38.2568C18.8945 37.7635 18.6664 37.0222 18.6042 35.6572C18.5368 34.181 18.5225 33.7382 18.5225 30C18.5225 26.2618 18.5368 25.819 18.6042 24.3428C18.6664 22.9778 18.8945 22.2365 19.0862 21.7432C19.3402 21.0897 19.6435 20.6233 20.1335 20.1335C20.6234 19.6435 21.0897 19.3402 21.7432 19.0862C22.2365 18.8945 22.9778 18.6664 24.3428 18.6042C25.819 18.5368 26.2619 18.5225 30 18.5225Z" fill="#0A0A0A"/>
</svg>
