<svg width="24" height="24" viewBox="0 0 24 24" fill="none" xmlns="http://www.w3.org/2000/svg">
<path fill-rule="evenodd" clip-rule="evenodd" d="M21.3767 4.5014C22.4093 4.77738 23.2224 5.59071 23.4984 6.62314C24 8.49498 24 12.3999 24 12.3999C24 12.3999 24 16.3049 23.4984 18.1766C23.2224 19.209 22.4093 20.0225 21.3767 20.2983C19.505 20.7999 11.9999 20.7999 11.9999 20.7999C11.9999 20.7999 4.49498 20.7999 2.62334 20.2983C1.59071 20.0225 0.777577 19.209 0.501593 18.1766C0 16.3049 0 12.3999 0 12.3999C0 12.3999 0 8.49498 0.501593 6.62314C0.777577 5.59071 1.59071 4.77738 2.62334 4.5014C4.49498 4 11.9999 4 11.9999 4C11.9999 4 19.505 4 21.3767 4.5014ZM15.8351 12.4001L9.60001 15.9999V8.79981L15.8351 12.4001Z" fill="#FF3333"/>
</svg>
