<svg width="60" height="60" viewBox="0 0 60 60" fill="none" xmlns="http://www.w3.org/2000/svg">
<path fill-rule="evenodd" clip-rule="evenodd" d="M40.9394 20.585C42.1442 20.9069 43.0928 21.8558 43.4148 23.0603C44 25.2441 44 29.7998 44 29.7998C44 29.7998 44 34.3557 43.4148 36.5393C43.0928 37.7438 42.1442 38.6929 40.9394 39.0147C38.7559 39.5999 29.9999 39.5999 29.9999 39.5999C29.9999 39.5999 21.2441 39.5999 19.0606 39.0147C17.8558 38.6929 16.9072 37.7438 16.5852 36.5393C16 34.3557 16 29.7998 16 29.7998C16 29.7998 16 25.2441 16.5852 23.0603C16.9072 21.8558 17.8558 20.9069 19.0606 20.585C21.2441 20 29.9999 20 29.9999 20C29.9999 20 38.7559 20 40.9394 20.585ZM34.4742 29.8001L27.2 33.9999V25.5998L34.4742 29.8001Z" fill="#0A0A0A"/>
</svg>
